# xmcd
#
# Track frame offsets: 
#        150
#        27685
#        36126
#        49168
#        69689
#        82155
#        101825
#        119503
#        141829
#        158272
#        176809
#        190647
#
# Disc length: 2703 seconds
#
# Revision: 0
# Processed by: cddbd v1.5.2PL0 Copyright (c) Steve Scherf et al.
# Submitted via: ExactAudioCopyFreeDBPlugin 1.0
#
DISCID=aa0a8d0c
DTITLE=斉藤和義 - 45 STONES
DYEAR=1900
DGENRE=Folk/Rock
TTITLE0=満男、飛ぶ
TTITLE1=ドレミの歌
TTITLE2=春の夢
TTITLE3=手をつなげば
TTITLE4=赤いヒマワリ
TTITLE5=古いラジカセ
TTITLE6=I Love Me
TTITLE7=Are you ready?
TTITLE8=レノンの夢も
TTITLE9=ずっと好きだった
TTITLE10=Don't cry baby
TTITLE11=空に星が綺麗
EXTD=
EXTT0=
EXTT1=
EXTT2=
EXTT3=
EXTT4=
EXTT5=
EXTT6=
EXTT7=
EXTT8=
EXTT9=
EXTT10=
EXTT11=
PLAYORDER=
